<svg id="Warstwa_1" data-name="Warstwa 1" xmlns="http://www.w3.org/2000/svg" viewBox="0 0 1762.3 577.24"><defs><style>.cls-1{fill:#fff;}.cls-2{fill:#fff;}.cls-3{fill:#fff;}.cls-4{fill:#fff;}.cls-5{fill:#fff;}.cls-6{font-size:300px;fill:#fff;font-family:AmericanTypewriter, American Typewriter;}.cls-7{letter-spacing:0.01em;}.cls-8{letter-spacing:0em;}</style></defs><title>Logo-desktop</title><g id="_grupa_" data-name="&lt;grupa&gt;"><path class="cls-1" d="M1262,246.66l115.91,0v-8.77H1262c-13.63,0-18.71-3-18.71-10.85,0-10.19,5-10.93,13.21-10.93.89,0,1.76,0,2.61,0l2.58,0h116.22v-8.8H1261.72c-.77,0-1.57,0-2.39,0l-2.8,0c-6.58,0-24.09,0-24.09,19.71,0,13,10,19.64,29.59,19.64Zm0,0" transform="translate(-178.23 -81.83)"/><rect class="cls-2" x="1077.01" y="137.42" width="115.91" height="2.91"/><rect class="cls-2" x="1077.01" y="143.51" width="115.91" height="2.91"/><rect class="cls-2" x="1077.01" y="149.98" width="115.91" height="2.93"/><polygon class="cls-3" points="1199.71 125.48 1209.17 129.9 1199.71 134.31 1199.71 125.48"/><polygon class="cls-4" points="1206.52 128.66 1206.52 131.13 1209.17 129.9 1206.52 128.66"/><path class="cls-1" d="M1359.81,301.16l3.31,0c7.83,0,28.67,0,28.67-23.45,0-15.52-11.84-23.39-35.23-23.39h-138v10.47h138c16.24,0,22.31,3.5,22.31,12.92,0,12.12-5.95,13-15.75,13-1.06,0-2.09,0-3.12,0l-3.06,0H1218.59v10.45h138.35c.92,0,1.88,0,2.87,0Zm0,0" transform="translate(-178.23 -81.83)"/><rect class="cls-2" x="1048.44" y="201.96" width="138.01" height="2.91"/><rect class="cls-2" x="1048.44" y="194.69" width="138.01" height="2.93"/><rect class="cls-2" x="1048.44" y="186.99" width="138.01" height="2.93"/><polygon class="cls-4" points="1040.36 182.99 1029.14 177.75 1040.36 172.51 1040.36 182.99"/><polygon class="cls-5" points="1032.28 179.21 1032.28 176.28 1029.14 177.75 1032.28 179.21"/><path class="cls-1" d="M1401.84,309h-154.4l-3.2,0c-1.2,0-2.45,0-3.69,0-8.74,0-32,0-32,26.17,0,17.32,13.23,26.1,39.32,26.1h154V349.54l-154,0c-18.15,0-24.89-3.92-24.89-14.44,0-13.53,6.65-14.5,17.58-14.5,1.17,0,2.33,0,3.45,0h157.84Zm0,0" transform="translate(-178.23 -81.83)"/><rect class="cls-2" x="1060.58" y="243.44" width="154.01" height="2.93"/><rect class="cls-2" x="1060.58" y="251.56" width="154.01" height="2.93"/><rect class="cls-2" x="1060.58" y="260.15" width="154.01" height="2.93"/><polygon class="cls-1" points="1223.61 227.18 1236.11 233.01 1223.61 238.85 1223.61 227.18"/><polygon class="cls-3" points="1232.61 231.38 1232.61 234.64 1236.11 233.01 1232.61 231.38"/></g><text x="-178.23" y="-81.83"></text><text x="-178.23" y="-81.83"></text><text x="-178.23" y="-81.83"></text><text x="-178.23" y="-81.83"></text><text x="-178.23" y="-81.83"></text><text class="cls-6" transform="translate(10.99 442.49)">Lea<tspan class="cls-7" x="518.7" y="0">r</tspan><tspan class="cls-8" x="670.19" y="0">nby</tspan></text></svg>